HIERARCHY
ROOT Hips
{
    OFFSET 0.000000 0.000000 0.000000
    CHANNELS 6 Xposition Yposition Zposition Zrotation Xrotation Yrotation
    JOINT Spine
    {
        OFFSET -0.000000 14.517291 0.000000
        CHANNELS 3 Zrotation Xrotation Yrotation
        JOINT Spine1
        {
            OFFSET -0.000000 37.558300 0.000000
            CHANNELS 3 Zrotation Xrotation Yrotation
            JOINT Neck
            {
                OFFSET -0.000000 37.404057 3.400369
                CHANNELS 3 Zrotation Xrotation Yrotation
                JOINT Head
                {
                    OFFSET -0.000000 24.785618 -3.540803
                    CHANNELS 3 Zrotation Xrotation Yrotation
                    End Site
                    {
                        OFFSET -0.000000 35.408028 0.000000
                    }
                }
            }
            JOINT LeftShoulder
            {
                OFFSET 6.992933 33.973492 -0.192664
                CHANNELS 3 Zrotation Xrotation Yrotation
                JOINT LeftArm
                {
                    OFFSET 21.527611 0.000000 0.000000
                    CHANNELS 3 Zrotation Xrotation Yrotation
                    JOINT LeftForeArm
                    {
                        OFFSET 56.353916 0.000000 0.000000
                        CHANNELS 3 Zrotation Xrotation Yrotation
                        JOINT LeftHand
                        {
                            OFFSET 47.774071 0.000000 0.000000
                            CHANNELS 3 Zrotation Xrotation Yrotation
                            End Site
                            {
                                OFFSET 26.556021 0.000000 0.000000
                            }
                        }
                    }
                }
            }
            JOINT RightShoulder
            {
                OFFSET -7.065357 33.973492 -0.192664
                CHANNELS 3 Zrotation Xrotation Yrotation
                JOINT RightArm
                {
                    OFFSET -21.527611 0.000000 0.000000
                    CHANNELS 3 Zrotation Xrotation Yrotation
                    JOINT RightForeArm
                    {
                        OFFSET -56.353916 0.000000 0.000000
                        CHANNELS 3 Zrotation Xrotation Yrotation
                        JOINT RightHand
                        {
                            OFFSET -47.774071 0.000000 0.000000
                            CHANNELS 3 Zrotation Xrotation Yrotation
                            End Site
                            {
                                OFFSET -26.556021 0.000000 0.000000
                            }
                        }
                    }
                }
            }
        }
    }
    JOINT LeftUpLeg
    {
        OFFSET 17.704014 0.000000 0.000000
        CHANNELS 3 Zrotation Xrotation Yrotation
        JOINT LeftLeg
        {
            OFFSET -0.000000 -81.181816 0.000000
            CHANNELS 3 Zrotation Xrotation Yrotation
            JOINT LeftFoot
            {
                OFFSET -0.000000 -62.821102 0.000000
                CHANNELS 3 Zrotation Xrotation Yrotation
                JOINT LeftToeBase
                {
                    OFFSET -0.000000 -11.507608 26.556021
                    CHANNELS 3 Zrotation Xrotation Yrotation
                    End Site
                    {
                        OFFSET -0.000000 0.000000 7.081605
                    }
                }
            }
        }
    }
    JOINT RightUpLeg
    {
        OFFSET -17.704014 0.000000 0.000000
        CHANNELS 3 Zrotation Xrotation Yrotation
        JOINT RightLeg
        {
            OFFSET -0.000000 -81.181816 0.000000
            CHANNELS 3 Zrotation Xrotation Yrotation
            JOINT RightFoot
            {
                OFFSET -0.000000 -62.821102 0.000000
                CHANNELS 3 Zrotation Xrotation Yrotation
                JOINT RightToeBase
                {
                    OFFSET -0.000000 -11.507608 26.556021
                    CHANNELS 3 Zrotation Xrotation Yrotation
                    End Site
                    {
                        OFFSET -0.000000 0.000000 7.081605
                    }
                }
            }
        }
    }
}
MOTION
Frames:    11
Frame Time:    0.008333
-11.371792    154.733749    -77.153526    -0.862212    -0.602903    43.024906    -0.986470    2.375455    -0.777538    -2.545168    1.220639    -0.238877    1.195711    9.132327    -19.171919    14.564229    -9.188188    -16.898472    0.660538    9.694204    -13.626451    -35.701561    21.666222    -43.563866    -4.062953    -31.461094    -118.955208    -12.348718    -36.166122    -11.392536    0.092118    11.089509    -5.224139    29.226717    14.691154    44.825821    -6.999410    6.874563    36.597824    -16.247936    4.015960    35.183243    21.668558    -5.679541    -4.808766    -10.484846    26.467749    -23.457691    2.477898    -24.825739    44.100266    0.000000    0.000000    0.000000    -20.192295    -21.291859    -18.151865    10.693303    26.344833    -11.994361    3.489642    2.106549    -17.085758    0.000000    0.000000    0.000000    
-11.301837    154.777405    -77.245117    -0.851073    -0.559105    42.762749    -0.980373    2.367907    -0.738822    -2.584655    1.215875    -0.225640    1.236626    9.083735    -19.101168    14.503235    -9.174602    -16.842297    0.656274    9.663518    -13.621997    -35.742638    21.644844    -43.525471    -4.096067    -31.417986    -118.965431    -12.399422    -36.164646    -11.429930    0.079547    11.072701    -5.156375    29.147322    14.630253    44.921871    -6.993126    6.869609    36.570763    -16.297611    3.983922    35.228001    21.433979    -5.606402    -5.375404    -10.309132    26.429773    -23.868668    2.812120    -24.874769    43.975597    0.000000    0.000000    0.000000    -20.099380    -21.358582    -18.212742    10.399518    26.182724    -11.793717    3.537407    2.297244    -16.896214    0.000000    0.000000    0.000000    
-11.227911    154.816956    -77.343285    -0.835756    -0.537629    42.491997    -0.994668    2.403000    -0.707295    -2.562125    1.173944    -0.216403    1.248126    9.049796    -19.025206    14.442241    -9.162498    -16.778339    0.634559    9.663640    -13.605600    -35.795303    21.591049    -43.498722    -4.113715    -31.336824    -118.965500    -12.440277    -36.112106    -11.391548    0.040238    11.067745    -5.095626    29.033142    14.610549    45.045830    -7.010870    6.816160    36.553089    -16.258896    3.942234    35.261002    21.218044    -5.523909    -5.979010    -10.167243    26.415888    -24.311237    3.106100    -24.949772    43.934116    0.000000    0.000000    0.000000    -20.047688    -21.386053    -18.057795    10.353353    25.960806    -11.661509    3.533218    2.489913    -16.916285    0.000000    0.000000    0.000000    
-11.146181    154.855911    -77.447189    -0.837889    -0.515323    42.222759    -0.972393    2.406336    -0.664905    -2.556694    1.154285    -0.202579    1.231736    9.013639    -18.957129    14.396605    -9.148857    -16.717670    0.603296    9.665453    -13.600836    -35.763474    21.642464    -43.510437    -4.062663    -31.448195    -118.936508    -12.470490    -36.140759    -11.399012    -0.016462    11.053269    -5.053135    28.954674    14.563266    45.170193    -7.009837    6.833774    36.525227    -16.258497    3.944117    35.348343    21.019817    -5.469946    -6.681992    -10.106974    26.430920    -24.610073    3.403382    -25.027668    43.917015    0.000000    0.000000    0.000000    -19.989288    -21.426262    -17.815115    10.354526    25.720764    -11.701985    3.488314    2.698850    -16.855030    0.000000    0.000000    0.000000    
-11.056433    154.885101    -77.536217    -0.841121    -0.508345    41.978306    -0.934855    2.393051    -0.640199    -2.576869    1.162804    -0.193584    1.227579    8.974100    -18.888933    14.371414    -9.122588    -16.654858    0.596628    9.657286    -13.607611    -35.740929    21.670977    -43.510250    -4.043272    -31.505388    -118.920486    -12.453002    -36.167358    -11.405151    -0.050195    11.037376    -5.034102    28.887745    14.503347    45.312672    -6.972282    6.837466    36.479412    -16.285034    3.920977    35.365337    20.836355    -5.411365    -7.295668    -9.986938    26.457916    -24.986143    3.751018    -25.082552    43.846848    0.000000    0.000000    0.000000    -19.925968    -21.443016    -17.578459    10.354464    25.496553    -11.666985    3.495791    2.872733    -16.890598    0.000000    0.000000    0.000000    
-10.961344    154.913971    -77.658691    -0.848864    -0.498698    41.704712    -0.869156    2.406340    -0.612272    -2.618294    1.138309    -0.184240    1.224893    8.949499    -18.813650    14.335716    -9.124888    -16.583313    0.579069    9.658398    -13.573853    -35.742794    21.640095    -43.514053    -4.073281    -31.450575    -118.925102    -12.379440    -36.161522    -11.423285    -0.092429    11.007838    -4.959352    28.853748    14.406038    45.393314    -6.919930    6.879995    36.482681    -16.334276    3.931040    35.362617    20.642092    -5.359704    -8.062269    -9.935444    26.473761    -25.290159    4.076609    -25.128801    43.932034    0.000000    0.000000    0.000000    -19.769346    -21.501444    -17.658730    9.981045    25.309692    -11.450764    3.530763    3.101907    -16.647451    0.000000    0.000000    0.000000    
-10.865988    154.938873    -77.774872    -0.860878    -0.488108    41.459175    -0.833117    2.395169    -0.597662    -2.622133    1.138501    -0.179169    1.211904    8.903406    -18.747606    14.299588    -9.087165    -16.525972    0.559705    9.664020    -13.578019    -35.722023    21.636642    -43.519077    -3.811443    -31.537291    -118.831009    -12.316426    -35.899261    -11.188269    -0.127569    10.996272    -4.900709    28.803532    14.306640    45.487461    -6.893838    6.904357    36.502640    -16.340467    3.943112    35.382214    20.460196    -5.345934    -8.753051    -9.884765    26.532907    -25.536755    4.298662    -25.170702    43.855244    0.000000    0.000000    0.000000    -19.699368    -21.532921    -17.489563    9.933415    25.086409    -11.402999    3.516605    3.298054    -16.614996    0.000000    0.000000    0.000000    
-10.755279    154.960480    -77.902199    -0.879680    -0.476564    41.219887    -0.780301    2.374203    -0.584355    -2.625491    1.144614    -0.174029    1.196460    8.875152    -18.687572    14.254562    -9.095071    -16.470909    0.525339    9.659730    -13.572322    -35.687050    21.650053    -43.541061    -3.811199    -31.566050    -118.818962    -12.305103    -35.926491    -11.181635    -0.191859    10.978621    -4.866111    28.729765    14.313499    45.601822    -6.954012    6.819786    36.508034    -16.307928    3.882887    35.420731    20.278040    -5.340196    -9.480755    -9.780137    26.660471    -25.947615    4.547273    -25.259392    43.863094    0.000000    0.000000    0.000000    -19.703838    -21.548761    -17.025400    10.186377    24.810646    -11.553412    3.463077    3.500066    -16.777575    0.000000    0.000000    0.000000    
-10.632036    154.971649    -78.042549    -0.896149    -0.477791    40.970200    -0.705635    2.373189    -0.565148    -2.660879    1.129296    -0.167029    1.219798    8.852995    -18.622730    14.180458    -9.092737    -16.420935    0.517818    9.644269    -13.578926    -35.717770    21.633263    -43.532734    -3.845958    -31.515680    -118.819725    -12.310629    -35.925140    -11.192470    -0.229891    10.943653    -4.801584    28.683849    14.263242    45.655083    -6.966680    6.813128    36.515583    -16.335091    3.868146    35.445080    20.092281    -5.272457    -10.198864    -9.764930    26.688965    -26.049368    4.887267    -25.275223    43.786194    0.000000    0.000000    0.000000    -19.630768    -21.589725    -16.891758    10.094695    24.618500    -11.481303    3.483149    3.705547    -16.718945    0.000000    0.000000    0.000000    
-10.497448    154.972885    -78.189255    -0.907545    -0.468697    40.756100    -0.617020    2.345584    -0.563985    -2.736099    1.146152    -0.164955    1.259097    8.805844    -18.556051    14.100232    -9.073400    -16.373817    0.533948    9.640418    -13.591821    -35.707272    21.644098    -43.557037    -3.789196    -31.544970    -118.771767    -12.340092    -35.863754    -11.232370    -0.234637    11.065619    -4.881356    28.584473    14.093981    45.948090    -6.913249    6.826649    36.463745    -16.335554    3.862381    35.432755    19.908819    -5.265666    -10.901528    -9.804089    26.654448    -26.118418    5.054149    -25.196707    43.686417    0.000000    0.000000    0.000000    -19.601942    -21.620132    -16.824379    10.023571    24.447735    -11.385732    3.506214    3.882156    -16.670887    0.000000    0.000000    0.000000    
-10.349751    154.968338    -78.343491    -0.919169    -0.460961    40.536488    -0.532621    2.321056    -0.561245    -2.798452    1.151520    -0.162732    1.302286    8.784942    -18.496372    14.017214    -9.079332    -16.331600    0.546423    9.672916    -13.595808    -35.668369    21.664486    -43.629089    -3.784269    -31.608517    -118.752754    -12.389339    -35.909153    -11.257030    -0.237580    11.036862    -4.828647    28.533348    13.949358    45.990799    -6.820141    6.893338    36.504719    -16.412502    3.871443    35.463367    19.705139    -5.277490    -11.622710    -9.725341    26.777815    -26.693102    5.343035    -25.210165    43.957100    0.000000    0.000000    0.000000    -19.570963    -21.665880    -16.742929    9.940848    24.295135    -11.349125    3.516884    4.070995    -16.581656    0.000000    0.000000    0.000000    
